<?xml version="1.0" encoding="UTF-8" standalone="no"?>
<!-- Generator: Adobe Illustrator 27.5.0, SVG Export Plug-In . SVG Version: 6.00 Build 0)  -->

<svg
   version="1.1"
   x="0px"
   y="0px"
   viewBox="0 0 1000 1000"
   style="enable-background:new 0 0 1000 1000;"
   xml:space="preserve"
   id="svg487"
   sodipodi:docname="rfid-scan.svg"
   inkscape:version="1.3 (0e150ed6c4, 2023-07-21)"
   xmlns:inkscape="http://www.inkscape.org/namespaces/inkscape"
   xmlns:sodipodi="http://sodipodi.sourceforge.net/DTD/sodipodi-0.dtd"
   xmlns="http://www.w3.org/2000/svg"
   xmlns:svg="http://www.w3.org/2000/svg"><defs
   id="defs487">&#10;		&#10;	&#10;		&#10;		&#10;			<linearGradient
   id="SVGID_00000081632537807476871890000005506010553330111932_"
   gradientUnits="userSpaceOnUse"
   x1="27.2734"
   y1="325.6081"
   x2="376.0177"
   y2="674.3524">&#10;			<stop
   offset="0"
   style="stop-color:#F2F3F4"
   id="stop485" />&#10;			<stop
   offset="0.4788"
   style="stop-color:#EDEEEF"
   id="stop486" />&#10;			<stop
   offset="1"
   style="stop-color:#E2E2E2"
   id="stop487" />&#10;		</linearGradient>&#10;		&#10;	&#10;	&#10;	&#10;	&#10;&#10;	&#10;	&#10;</defs><sodipodi:namedview
   id="namedview487"
   pagecolor="#505050"
   bordercolor="#eeeeee"
   borderopacity="1"
   inkscape:showpageshadow="0"
   inkscape:pageopacity="0"
   inkscape:pagecheckerboard="0"
   inkscape:deskcolor="#505050"
   inkscape:zoom="0.4065"
   inkscape:cx="306.27306"
   inkscape:cy="547.35547"
   inkscape:window-width="1920"
   inkscape:window-height="1009"
   inkscape:window-x="1912"
   inkscape:window-y="-8"
   inkscape:window-maximized="1"
   inkscape:current-layer="svg487" />&#10;&#10;&#10;&#10;<path
   id="path487"
   style="fill:none;fill-opacity:1;fill-rule:evenodd;stroke:#2d87ff;stroke-width:27.5771;stroke-dasharray:none;stroke-opacity:1"
   d="m 497.21529,63.630098 a 441.58491,441.58491 0 0 0 -18.70248,1.454203 441.58491,441.58491 0 0 0 -31.31668,2.434763 441.58491,441.58491 0 0 0 -31.02031,5.088336 441.58491,441.58491 0 0 0 -30.65468,6.861083 441.58491,441.58491 0 0 0 -29.98434,9.445425 441.58491,441.58491 0 0 0 -29.35282,11.143382 441.58491,441.58491 0 0 0 -28.33626,13.6086 441.58491,441.58491 0 0 0 -27.50248,15.2207 441.58491,441.58491 0 0 0 -26.0677,17.46708 441.58491,441.58491 0 0 0 -25.08992,18.9961 441.58491,441.58491 0 0 0 -23.32824,21.00152 441.58491,441.58491 0 0 0 -22.10946,22.34213 441.58491,441.58491 0 0 0 -20.13454,24.13984 441.58491,441.58491 0 0 0 -18.70249,25.25055 441.58491,441.58491 0 0 0 -16.46992,26.70756 441.58491,441.58491 0 0 0 -14.94924,27.69085 441.58491,441.58491 0 0 0 -12.520029,28.80991 441.58491,441.58491 0 0 0 -10.841453,29.48855 441.58491,441.58491 0 0 0 -8.295901,30.28904 441.58491,441.58491 0 0 0 -6.548094,30.75992 441.58491,441.58491 0 0 0 -3.908351,31.14771 441.58491,441.58491 0 0 0 -2.335029,18.62771 l -0.182828,3.70615 a 441.58491,441.58491 0 0 0 0.285307,10.89684 441.58491,441.58491 0 0 0 -0.728491,10.85255 441.58491,441.58491 0 0 0 1.553938,20.53617 441.58491,441.58491 0 0 0 2.371033,31.34714 441.58491,441.58491 0 0 0 5.276695,30.96491 441.58491,441.58491 0 0 0 6.808472,30.71006 441.58491,441.58491 0 0 0 9.614367,29.86802 441.58491,441.58491 0 0 0 11.10183,29.43591 441.58491,441.58491 0 0 0 13.780334,28.23099 441.58491,441.58491 0 0 0 15.15977,27.53022 441.58491,441.58491 0 0 0 17.65821,25.9929 441.58491,441.58491 0 0 0 18.91577,25.09268 441.58491,441.58491 0 0 0 21.17047,23.22021 441.58491,441.58491 0 0 0 22.28953,22.15103 441.58491,441.58491 0 0 0 24.26448,19.97941 441.58491,441.58491 0 0 0 25.20347,18.75234 441.58491,441.58491 0 0 0 26.85988,16.33143 441.58491,441.58491 0 0 0 27.60777,14.97418 441.58491,441.58491 0 0 0 28.92901,12.3566 441.58491,441.58491 0 0 0 29.42761,10.89131 441.58491,441.58491 0 0 0 30.39983,8.12417 441.58491,441.58491 0 0 0 30.70176,6.60071 441.58491,441.58491 0 0 0 31.19482,3.71168 441.58491,441.58491 0 0 0 20.46968,2.43754 441.58491,441.58491 0 0 0 10.88853,-0.26314 441.58491,441.58491 0 0 0 10.86086,0.75342 441.58491,441.58491 0 0 0 20.54447,-1.50962 441.58491,441.58491 0 0 0 31.34992,-2.30734 441.58491,441.58491 0 0 0 30.99537,-5.21852 441.58491,441.58491 0 0 0 30.67683,-6.7309 441.58491,441.58491 0 0 0 29.93729,-9.56729 441.58491,441.58491 0 0 0 29.43035,-11.02981 441.58491,441.58491 0 0 0 28.26425,-13.72495 441.58491,441.58491 0 0 0 27.56066,-15.09882 441.58491,441.58491 0 0 0 26.03445,-17.60558 441.58491,441.58491 0 0 0 25.11762,-18.85206 441.58491,441.58491 0 0 0 23.30054,-21.15385 441.58491,441.58491 0 0 0 22.15934,-22.20644 441.58491,441.58491 0 0 0 20.06528,-24.26447 441.58491,441.58491 0 0 0 18.7745,-25.12314 441.58491,441.58491 0 0 0 16.39514,-26.83496 441.58491,441.58491 0 0 0 15.04064,-27.58837 441.58491,441.58491 0 0 0 12.40646,-28.87639 441.58491,441.58491 0 0 0 10.96058,-29.43591 441.58491,441.58491 0 0 0 8.17677,-30.34445 441.58491,441.58491 0 0 0 6.67274,-30.71837 441.58491,441.58491 0 0 0 3.77817,-31.18651 441.58491,441.58491 0 0 0 2.47903,-20.45861 441.58491,441.58491 0 0 0 0.53468,-21.72168 441.58491,441.58491 0 0 0 0,-0.0277 l -0.0163,-3.70892 a 441.58491,441.58491 0 0 0 -0.11075,-1.37387 441.58491,441.58491 0 0 0 -4.86679,-60.9188 441.58491,441.58491 0 0 0 -0.20498,-1.18553 441.58491,441.58491 0 0 0 -13.68894,-60.56421 441.58491,441.58491 0 0 0 -0.0194,-0.0776 441.58491,441.58491 0 0 0 -22.13441,-57.92727 441.58491,441.58491 0 0 0 -0.55398,-1.25755 441.58491,441.58491 0 0 0 -29.62426,-53.27104 441.58491,441.58491 0 0 0 -1.29078,-2.04144 441.58491,441.58491 0 0 0 -36.43272,-47.90849 441.58491,441.58491 0 0 0 -2.01096,-2.3378 441.58491,441.58491 0 0 0 -42.52654,-41.90608 441.58491,441.58491 0 0 0 -2.63697,-2.28242 441.58491,441.58491 0 0 0 -47.85031,-35.28597 441.58491,441.58491 0 0 0 -3.07738,-1.95555 441.58491,441.58491 0 0 0 -52.29605,-28.08693 441.58491,441.58491 0 0 0 -3.36545,-1.49853 441.58491,441.58491 0 0 0 -55.85261,-20.400445 441.58491,441.58491 0 0 0 -3.29067,-0.916839 441.58491,441.58491 0 0 0 -58.4868,-12.320585 441.58491,441.58491 0 0 0 -2.99152,-0.37672 441.58491,441.58491 0 0 0 -35.58235,-3.398682 441.58491,441.58491 0 0 0 -12.74161,0.254836 441.58491,441.58491 0 0 0 -12.71669,-0.828214 z" /><path
   id="path487-0"
   style="fill:none;fill-opacity:1;fill-rule:evenodd;stroke:#2d87ff;stroke-width:27.5771;stroke-dasharray:none;stroke-opacity:1"
   d="m 332.31104,388.88208 c -29.82123,0 -53.82779,24.00935 -53.82779,53.83057 v 443.42496 a 441.58491,441.58491 0 0 0 222.44373,60.65288 441.58491,441.58491 0 0 0 220.58789,-60.71106 V 442.71265 c 0,-29.82122 -24.00658,-53.83057 -53.82781,-53.83057 z" /><g
   id="g490"
   transform="matrix(0.91923772,0,0,0.91923772,-2260.2266,348.35643)"><g
     id="g491"
     transform="matrix(1.5427975,0,0,1.5427975,-1553.021,269.09033)"><path
       style="fill:#2d87ff;fill-opacity:1"
       d="m 2014.636,364.394 c -37.491,-25.319 -77.564,-47.075 -119.123,-64.656 -86.474,-36.572 -178.3,-55.116 -272.935,-55.116 -94.634,0 -186.461,18.544 -272.934,55.116 -41.559,17.581 -81.632,39.336 -119.123,64.656 -9.911,6.698 -19.664,13.66 -29.241,20.872 -23.506,17.701 -26.915,51.691 -7.369,73.687 l 10e-4,0.001 c 17.445,19.632 47.018,22.515 67.995,6.713 39.086,-29.442 81.563,-53.924 126.985,-73.133 73.987,-31.295 152.609,-47.163 233.687,-47.163 81.078,0 159.699,15.868 233.687,47.163 45.299,19.162 87.676,43.562 126.679,72.903 20.979,15.781 50.534,12.895 67.973,-6.728 v 0 c 19.55,-21.999 16.144,-56.006 -7.377,-73.696 -9.47,-7.121 -19.111,-13.999 -28.905,-20.619 z"
       id="path12"
       transform="matrix(0.1908942,0,0,0.1908942,2643.2081,-98.9064)" /><path
       style="fill:#2d87ff;fill-opacity:1"
       d="M 1817.83,483.637 C 1755.958,457.474 1690.269,444.2 1622.579,444.2 c -67.69,0 -133.379,13.274 -195.251,39.437 -32.378,13.696 -62.965,30.594 -91.522,50.53 -24.674,17.225 -28.671,52.196 -8.681,74.688 v 0 c 16.942,19.063 45.484,22.5 66.397,7.903 22.803,-15.917 47.219,-29.401 73.054,-40.331 49.386,-20.886 101.87,-31.478 156.003,-31.478 54.134,0 106.617,10.591 156.003,31.478 25.721,10.882 50.032,24.295 72.746,40.118 20.917,14.571 49.439,11.133 66.372,-7.922 l 10e-4,-0.001 c 19.995,-22.5 15.991,-57.491 -8.704,-74.701 -28.455,-19.831 -58.923,-36.643 -91.167,-50.284 z"
       id="path13"
       transform="matrix(0.1908942,0,0,0.1908942,2643.2081,-98.9064)" /><path
       style="fill:#2d87ff;fill-opacity:1"
       d="m 1740.14,667.535 c -37.258,-15.761 -76.815,-23.752 -117.561,-23.752 -40.746,0 -80.303,7.991 -117.561,23.752 -10.652,4.505 -20.983,9.585 -30.967,15.225 -27.851,15.732 -33.909,53.275 -12.661,77.185 l 10e-4,10e-4 c 15.686,17.652 41.616,22.184 62.158,10.536 29.871,-16.938 63.758,-25.951 99.03,-25.951 35.155,0 68.933,8.951 98.732,25.78 20.537,11.598 46.423,7.059 62.091,-10.57 v 0 c 21.256,-23.918 15.201,-61.501 -12.682,-77.198 -9.864,-5.553 -20.065,-10.561 -30.58,-15.008 z"
       id="path14"
       transform="matrix(0.1908942,0,0,0.1908942,2643.2081,-98.9064)" /><circle
       style="fill:#2d87ff;fill-opacity:1"
       cx="1622.45"
       cy="885.57599"
       r="60.744999"
       id="circle14"
       transform="matrix(0.1908942,0,0,0.1908942,2643.2081,-98.9064)" /></g></g></svg>
