<?xml version="1.0" encoding="UTF-8" standalone="no"?>
<!-- Generator: Adobe Illustrator 27.5.0, SVG Export Plug-In . SVG Version: 6.00 Build 0)  -->

<svg
   version="1.1"
   x="0px"
   y="0px"
   viewBox="0 0 1000 1000"
   style="enable-background:new 0 0 1000 1000;"
   xml:space="preserve"
   id="svg487"
   sodipodi:docname="rfid-scan.svg"
   inkscape:version="1.3 (0e150ed6c4, 2023-07-21)"
   xmlns:inkscape="http://www.inkscape.org/namespaces/inkscape"
   xmlns:sodipodi="http://sodipodi.sourceforge.net/DTD/sodipodi-0.dtd"
   xmlns="http://www.w3.org/2000/svg"
   xmlns:svg="http://www.w3.org/2000/svg"><defs
   id="defs487">&#10;		&#10;	&#10;		&#10;		&#10;			<linearGradient
   id="SVGID_00000081632537807476871890000005506010553330111932_"
   gradientUnits="userSpaceOnUse"
   x1="27.2734"
   y1="325.6081"
   x2="376.0177"
   y2="674.3524">&#10;			<stop
   offset="0"
   style="stop-color:#F2F3F4"
   id="stop485" />&#10;			<stop
   offset="0.4788"
   style="stop-color:#EDEEEF"
   id="stop486" />&#10;			<stop
   offset="1"
   style="stop-color:#E2E2E2"
   id="stop487" />&#10;		</linearGradient>&#10;		&#10;	&#10;	&#10;	&#10;	&#10;&#10;	&#10;	&#10;</defs><sodipodi:namedview
   id="namedview487"
   pagecolor="#505050"
   bordercolor="#eeeeee"
   borderopacity="1"
   inkscape:showpageshadow="0"
   inkscape:pageopacity="0"
   inkscape:pagecheckerboard="0"
   inkscape:deskcolor="#505050"
   inkscape:zoom="0.4065"
   inkscape:cx="429.27429"
   inkscape:cy="715.86716"
   inkscape:window-width="1450"
   inkscape:window-height="1020"
   inkscape:window-x="2586"
   inkscape:window-y="167"
   inkscape:window-maximized="0"
   inkscape:current-layer="svg487" />&#10;&#10;&#10;&#10;<path
   id="path487"
   style="fill:none;fill-opacity:1;fill-rule:evenodd;stroke:#435473;stroke-width:30.2792;stroke-dasharray:none;stroke-opacity:1"
   d="m 496.95275,20.370634 a 484.8532,484.8532 0 0 0 -20.53503,1.596693 484.8532,484.8532 0 0 0 -34.38521,2.67333 484.8532,484.8532 0 0 0 -34.05981,5.586912 484.8532,484.8532 0 0 0 -33.65835,7.533361 484.8532,484.8532 0 0 0 -32.92233,10.370926 484.8532,484.8532 0 0 0 -32.22893,12.235256 484.8532,484.8532 0 0 0 -31.11276,14.942026 484.8532,484.8532 0 0 0 -30.19728,16.712087 484.8532,484.8532 0 0 0 -28.62193,19.178575 484.8532,484.8532 0 0 0 -27.54832,20.85742 484.8532,484.8532 0 0 0 -25.61404,23.05933 484.8532,484.8532 0 0 0 -24.27584,24.5313 484.8532,484.8532 0 0 0 -22.1074,26.50516 484.8532,484.8532 0 0 0 -20.535039,27.72471 484.8532,484.8532 0 0 0 -18.08371,29.32447 484.8532,484.8532 0 0 0 -16.414028,30.40412 484.8532,484.8532 0 0 0 -13.746792,31.63282 484.8532,484.8532 0 0 0 -11.903743,32.37796 484.8532,484.8532 0 0 0 -9.108767,33.25688 484.8532,484.8532 0 0 0 -7.189703,33.7739 484.8532,484.8532 0 0 0 -4.291308,34.19969 484.8532,484.8532 0 0 0 -2.563824,20.45294 l -0.200743,4.06929 a 484.8532,484.8532 0 0 0 0.313263,11.96455 484.8532,484.8532 0 0 0 -0.799871,11.91593 484.8532,484.8532 0 0 0 1.706199,22.54839 484.8532,484.8532 0 0 0 2.603356,34.41866 484.8532,484.8532 0 0 0 5.793727,33.99898 484.8532,484.8532 0 0 0 7.475595,33.71915 484.8532,484.8532 0 0 0 10.556421,32.79462 484.8532,484.8532 0 0 0 12.189633,32.32015 484.8532,484.8532 0 0 0 15.130587,30.99718 484.8532,484.8532 0 0 0 16.645187,30.22775 484.8532,484.8532 0 0 0 19.38843,28.53979 484.8532,484.8532 0 0 0 20.76922,27.55136 484.8532,484.8532 0 0 0 23.24483,25.49542 484.8532,484.8532 0 0 0 24.47355,24.32148 484.8532,484.8532 0 0 0 26.64202,21.93708 484.8532,484.8532 0 0 0 27.67301,20.58976 484.8532,484.8532 0 0 0 29.49172,17.93165 484.8532,484.8532 0 0 0 30.31289,16.44141 484.8532,484.8532 0 0 0 31.76359,13.56736 484.8532,484.8532 0 0 0 32.31105,11.95849 484.8532,484.8532 0 0 0 33.37853,8.9202 484.8532,484.8532 0 0 0 33.71005,7.24748 484.8532,484.8532 0 0 0 34.25141,4.07536 484.8532,484.8532 0 0 0 22.47538,2.67639 484.8532,484.8532 0 0 0 11.95543,-0.28893 484.8532,484.8532 0 0 0 11.92506,0.82724 484.8532,484.8532 0 0 0 22.5575,-1.65753 484.8532,484.8532 0 0 0 34.42171,-2.53343 484.8532,484.8532 0 0 0 34.03242,-5.72985 484.8532,484.8532 0 0 0 33.68267,-7.39042 484.8532,484.8532 0 0 0 32.87067,-10.50474 484.8532,484.8532 0 0 0 32.31406,-12.11056 484.8532,484.8532 0 0 0 31.0337,-15.06977 484.8532,484.8532 0 0 0 30.26116,-16.57826 484.8532,484.8532 0 0 0 28.58542,-19.33065 484.8532,484.8532 0 0 0 27.57874,-20.69926 484.8532,484.8532 0 0 0 25.58362,-23.22659 484.8532,484.8532 0 0 0 24.3306,-24.38232 484.8532,484.8532 0 0 0 22.03137,-26.642 484.8532,484.8532 0 0 0 20.61409,-27.5848 484.8532,484.8532 0 0 0 18.00161,-29.46437 484.8532,484.8532 0 0 0 16.51438,-30.29159 484.8532,484.8532 0 0 0 13.6221,-31.70582 484.8532,484.8532 0 0 0 12.03454,-32.32016 484.8532,484.8532 0 0 0 8.97796,-33.31772 484.8532,484.8532 0 0 0 7.32657,-33.72828 484.8532,484.8532 0 0 0 4.14837,-34.24229 484.8532,484.8532 0 0 0 2.72193,-22.46323 484.8532,484.8532 0 0 0 0.58707,-23.85006 484.8532,484.8532 0 0 0 0,-0.0305 l -0.0179,-4.07234 a 484.8532,484.8532 0 0 0 -0.1216,-1.50849 484.8532,484.8532 0 0 0 -5.34365,-66.88787 484.8532,484.8532 0 0 0 -0.22506,-1.30169 484.8532,484.8532 0 0 0 -15.03024,-66.49854 484.8532,484.8532 0 0 0 -0.0214,-0.0852 484.8532,484.8532 0 0 0 -24.30323,-63.60323 484.8532,484.8532 0 0 0 -0.60826,-1.38077 484.8532,484.8532 0 0 0 -32.52697,-58.49076 484.8532,484.8532 0 0 0 -1.41725,-2.24146 484.8532,484.8532 0 0 0 -40.00255,-52.60276 484.8532,484.8532 0 0 0 -2.208,-2.56687 484.8532,484.8532 0 0 0 -46.69346,-46.01221 484.8532,484.8532 0 0 0 -2.89536,-2.50606 484.8532,484.8532 0 0 0 -52.53888,-38.743431 484.8532,484.8532 0 0 0 -3.37891,-2.147162 484.8532,484.8532 0 0 0 -57.42023,-30.839002 484.8532,484.8532 0 0 0 -3.69521,-1.645363 484.8532,484.8532 0 0 0 -61.32527,-22.399364 484.8532,484.8532 0 0 0 -3.61311,-1.006674 484.8532,484.8532 0 0 0 -64.21758,-13.527807 484.8532,484.8532 0 0 0 -3.28464,-0.413632 484.8532,484.8532 0 0 0 -39.06886,-3.731699 484.8532,484.8532 0 0 0 -13.99008,0.279806 484.8532,484.8532 0 0 0 -13.96272,-0.909366 z" /><path
   id="path487-0"
   style="fill:none;fill-opacity:1;fill-rule:evenodd;stroke:#435473;stroke-width:30.2792;stroke-dasharray:none;stroke-opacity:1"
   d="m 315.89051,377.49213 c -32.74324,0 -59.10206,26.36189 -59.10206,59.10512 V 923.4708 a 484.8532,484.8532 0 0 0 244.23968,66.59589 484.8532,484.8532 0 0 0 242.20199,-66.65977 V 436.59725 c 0,-32.74323 -26.35884,-59.10512 -59.10208,-59.10512 z"
   inkscape:label="path487-0" /><g
   id="g491"
   transform="matrix(1.5571585,0,0,1.5571585,-4098.1517,604.59075)"
   style="enable-background:new 0 0 1000 1000"><path
     style="fill:#435473;fill-opacity:1"
     d="m 2014.636,364.394 c -37.491,-25.319 -77.564,-47.075 -119.123,-64.656 -86.474,-36.572 -178.3,-55.116 -272.935,-55.116 -94.634,0 -186.461,18.544 -272.934,55.116 -41.559,17.581 -81.632,39.336 -119.123,64.656 -9.911,6.698 -19.664,13.66 -29.241,20.872 -23.506,17.701 -26.915,51.691 -7.369,73.687 l 10e-4,0.001 c 17.445,19.632 47.018,22.515 67.995,6.713 39.086,-29.442 81.563,-53.924 126.985,-73.133 73.987,-31.295 152.609,-47.163 233.687,-47.163 81.078,0 159.699,15.868 233.687,47.163 45.299,19.162 87.676,43.562 126.679,72.903 20.979,15.781 50.534,12.895 67.973,-6.728 v 0 c 19.55,-21.999 16.144,-56.006 -7.377,-73.696 -9.47,-7.121 -19.111,-13.999 -28.905,-20.619 z"
     id="path12"
     transform="matrix(0.1908942,0,0,0.1908942,2643.2081,-98.9064)" /><path
     style="fill:#435473;fill-opacity:1"
     d="M 1817.83,483.637 C 1755.958,457.474 1690.269,444.2 1622.579,444.2 c -67.69,0 -133.379,13.274 -195.251,39.437 -32.378,13.696 -62.965,30.594 -91.522,50.53 -24.674,17.225 -28.671,52.196 -8.681,74.688 v 0 c 16.942,19.063 45.484,22.5 66.397,7.903 22.803,-15.917 47.219,-29.401 73.054,-40.331 49.386,-20.886 101.87,-31.478 156.003,-31.478 54.134,0 106.617,10.591 156.003,31.478 25.721,10.882 50.032,24.295 72.746,40.118 20.917,14.571 49.439,11.133 66.372,-7.922 l 10e-4,-0.001 c 19.995,-22.5 15.991,-57.491 -8.704,-74.701 -28.455,-19.831 -58.923,-36.643 -91.167,-50.284 z"
     id="path13"
     transform="matrix(0.1908942,0,0,0.1908942,2643.2081,-98.9064)" /><path
     style="fill:#435473;fill-opacity:1"
     d="m 1740.14,667.535 c -37.258,-15.761 -76.815,-23.752 -117.561,-23.752 -40.746,0 -80.303,7.991 -117.561,23.752 -10.652,4.505 -20.983,9.585 -30.967,15.225 -27.851,15.732 -33.909,53.275 -12.661,77.185 l 10e-4,10e-4 c 15.686,17.652 41.616,22.184 62.158,10.536 29.871,-16.938 63.758,-25.951 99.03,-25.951 35.155,0 68.933,8.951 98.732,25.78 20.537,11.598 46.423,7.059 62.091,-10.57 v 0 c 21.256,-23.918 15.201,-61.501 -12.682,-77.198 -9.864,-5.553 -20.065,-10.561 -30.58,-15.008 z"
     id="path14"
     transform="matrix(0.1908942,0,0,0.1908942,2643.2081,-98.9064)" /><circle
     style="fill:#435473;fill-opacity:1"
     cx="1622.45"
     cy="885.57599"
     r="60.744999"
     id="circle14"
     transform="matrix(0.1908942,0,0,0.1908942,2643.2081,-98.9064)" /></g></svg>
